<?xml version="1.0" encoding="utf-8"?>
<!-- Designed by Vexels.com - 2016 All Rights Reserved - https://vexels.com/terms-and-conditions/  -->

<svg version="1.1" id="Layer_1" xmlns="http://www.w3.org/2000/svg" xmlns:xlink="http://www.w3.org/1999/xlink" x="0px" y="0px"
	 width="1200px" height="1200px" viewBox="0 0 1200 1200" enable-background="new 0 0 1200 1200" xml:space="preserve">
<pattern  x="302.5" y="1020.5" width="42.314" height="42.312" patternUnits="userSpaceOnUse" id="SVGID_16_" viewBox="3.079 -45.391 42.314 42.312" overflow="visible">
	<g>
		<polygon fill="none" points="3.079,-3.078 45.393,-3.078 45.393,-45.391 3.079,-45.391 		"/>
		<g>
			<polygon fill="none" points="3.079,-45.391 45.393,-45.391 45.393,-3.078 3.079,-3.078 			"/>
			<g>
				<polygon fill="none" points="3.079,-45.391 45.394,-45.391 45.394,-3.078 3.079,-3.078 				"/>
				<g>
					<g>
						<g>
							<defs>
								<rect id="SVGID_1_" x="3.079" y="-45.39" width="42.314" height="42.312"/>
							</defs>
							<clipPath id="SVGID_2_">
								<use xlink:href="#SVGID_1_"  overflow="visible"/>
							</clipPath>
							<path clip-path="url(#SVGID_2_)" fill="#FFFFFF" d="M37.893-3.078c0,1.7-1.377,3.078-3.078,3.078
								c-1.699,0-3.078-1.378-3.078-3.078c0-1.699,1.379-3.078,3.078-3.078C36.516-6.156,37.893-4.777,37.893-3.078z"/>
						</g>
					</g>
					<g>
						<g>
							<defs>
								<rect id="SVGID_3_" x="3.079" y="-45.39" width="42.314" height="42.312"/>
							</defs>
							<clipPath id="SVGID_4_">
								<use xlink:href="#SVGID_3_"  overflow="visible"/>
							</clipPath>
							<path clip-path="url(#SVGID_4_)" fill="#FFFFFF" d="M16.736-3.078c0,1.7-1.379,3.078-3.078,3.078
								c-1.701,0-3.08-1.378-3.08-3.078c0-1.699,1.379-3.078,3.08-3.078C15.357-6.156,16.736-4.777,16.736-3.078z"/>
						</g>
					</g>
					<g>
						<g>
							<defs>
								<rect id="SVGID_5_" x="3.079" y="-45.39" width="42.314" height="42.312"/>
							</defs>
							<clipPath id="SVGID_6_">
								<use xlink:href="#SVGID_5_"  overflow="visible"/>
							</clipPath>
							<path clip-path="url(#SVGID_6_)" fill="#FFFFFF" d="M48.472-24.234c0,1.699-1.378,3.078-3.078,3.078
								s-3.079-1.379-3.079-3.078s1.379-3.078,3.079-3.078S48.472-25.936,48.472-24.234z"/>
						</g>
					</g>
					<g>
						<g>
							<defs>
								<rect id="SVGID_7_" x="3.079" y="-45.39" width="42.314" height="42.312"/>
							</defs>
							<clipPath id="SVGID_8_">
								<use xlink:href="#SVGID_7_"  overflow="visible"/>
							</clipPath>
							<path clip-path="url(#SVGID_8_)" fill="#FFFFFF" d="M27.314-24.234c0,1.699-1.378,3.078-3.078,3.078
								c-1.7,0-3.079-1.379-3.079-3.078s1.379-3.078,3.079-3.078C25.936-27.312,27.314-25.936,27.314-24.234z"/>
						</g>
					</g>
					<g>
						<g>
							<defs>
								<rect id="SVGID_9_" x="3.079" y="-45.39" width="42.314" height="42.312"/>
							</defs>
							<clipPath id="SVGID_10_">
								<use xlink:href="#SVGID_9_"  overflow="visible"/>
							</clipPath>
							<path clip-path="url(#SVGID_10_)" fill="#FFFFFF" d="M6.157-24.234c0,1.699-1.378,3.078-3.078,3.078
								c-1.7,0-3.079-1.379-3.079-3.078s1.379-3.078,3.079-3.078C4.779-27.312,6.157-25.936,6.157-24.234z"/>
						</g>
					</g>
					<g>
						<g>
							<defs>
								<rect id="SVGID_11_" x="3.079" y="-45.39" width="42.314" height="42.312"/>
							</defs>
							<clipPath id="SVGID_12_">
								<use xlink:href="#SVGID_11_"  overflow="visible"/>
							</clipPath>
							<path clip-path="url(#SVGID_12_)" fill="#FFFFFF" d="M37.893-45.391c0,1.699-1.377,3.078-3.078,3.078
								c-1.699,0-3.078-1.379-3.078-3.078c0-1.7,1.379-3.078,3.078-3.078C36.516-48.469,37.893-47.091,37.893-45.391z"/>
						</g>
					</g>
					<g>
						<g>
							<defs>
								<rect id="SVGID_13_" x="3.079" y="-45.39" width="42.314" height="42.312"/>
							</defs>
							<clipPath id="SVGID_14_">
								<use xlink:href="#SVGID_13_"  overflow="visible"/>
							</clipPath>
							<path clip-path="url(#SVGID_14_)" fill="#FFFFFF" d="M16.736-45.391c0,1.699-1.379,3.078-3.078,3.078
								c-1.701,0-3.08-1.379-3.08-3.078c0-1.7,1.379-3.078,3.08-3.078C15.357-48.469,16.736-47.091,16.736-45.391z"/>
						</g>
					</g>
				</g>
			</g>
		</g>
	</g>
</pattern>
<g>
	<g>
		<g>
			<g>
				<g>
					<g>
						<g>
							<path fill="#E93C74" d="M511.165,59.46l-9.534,3.797c0,0,5.171,85.513-32.786,115.872
								c-20.019,16.002-36.857,28.407-36.857,28.407l8.998,268.362c0,0-119.263,150.489-155.561,435.829
								c-8.298,65.315-26.806,180.602-26.806,180.602s90.352,28.854,222.441,45.953c39.153,5.076,81.925,9.129,127.161,11.068
								c11.106,0.49,22.221,0.68,33.299,0.646c43.033-0.193,85.508-4.062,124.904-9.699c0,0.033,0.004,0.051,0.006,0.062
								c10.772-1.529,21.324-3.203,31.588-4.965c0.01-0.008,0.027-0.008,0.033-0.008c61.586-10.598,113.043-24.619,143.253-33.746
								c0.02-0.006,0.048-0.012,0.078-0.023c0,0-23.432-144.564-30.964-189.879c-56.651-340.918-146.11-439.667-146.11-439.667
								l31.293-193.324c0,0-26.146-69.319-39.254-83.404c-33.109-35.582-37.146-119.764-37.146-119.764L676.17,59.354l0.197-0.375
								l-66.807,132.155L534.47,50"/>
						</g>
					</g>
					<g>
						<polygon fill="#00A2AB" points="521.108,55.45 606.162,243.806 689.338,61.047 676.166,59.36 609.562,191.136 534.47,50 
													"/>
					</g>
					<g>
						<path fill="#00A2AB" d="M442.442,472.079h321.86c0,0,24.25,32.133,34.604,55.587H407.269
							C407.269,527.666,433.161,482.873,442.442,472.079z"/>
					</g>
				</g>
				<g opacity="0.2">
					<g>
						<polygon fill="#CC1C64" points="676.166,59.36 676.175,59.36 676.363,58.987 						"/>
					</g>
				</g>
			</g>
			<g>
				<g>
					<pattern  id="SVGID_15_" xlink:href="#SVGID_16_" patternTransform="matrix(3.213 0 0 3.213 43755.7578 49806.1875)">
					</pattern>
					<path fill="url(#SVGID_15_)" d="M511.165,59.46l-9.534,3.797c0,0,5.171,85.513-32.786,115.872
						c-20.019,16.002-36.857,28.407-36.857,28.407l8.998,268.362c0,0-119.263,150.489-155.561,435.829
						c-8.298,65.315-26.806,180.602-26.806,180.602s90.352,28.854,222.441,45.953c39.153,5.076,81.925,9.129,127.161,11.068
						c11.106,0.49,22.221,0.68,33.299,0.646c43.033-0.193,85.508-4.062,124.904-9.699c0,0.033,0.004,0.051,0.006,0.062
						c10.772-1.529,21.324-3.203,31.588-4.965c0.01-0.008,0.027-0.008,0.033-0.008c61.586-10.598,113.043-24.619,143.253-33.746
						c0.02-0.006,0.048-0.012,0.078-0.023c0,0-23.432-144.564-30.964-189.879c-56.651-340.918-146.11-439.667-146.11-439.667
						l31.293-193.324c0,0-26.146-69.319-39.254-83.404c-33.109-35.582-37.146-119.764-37.146-119.764L676.17,59.354l0.197-0.375
						l-66.807,132.155L534.47,50"/>
				</g>
			</g>
		</g>
	</g>
</g>
</svg>
